<svg fill="none" height="268" viewBox="0 0 268 268" width="268" xmlns="http://www.w3.org/2000/svg" xmlns:xlink="http://www.w3.org/1999/xlink"><linearGradient id="a"><stop offset="0" stop-color="#fab961"/><stop offset="1"/></linearGradient><linearGradient id="b" gradientUnits="userSpaceOnUse" x1="160.81" x2="160.81" xlink:href="#a" y1="90.5826" y2="181.349"/><linearGradient id="c" gradientUnits="userSpaceOnUse" x1="117.512" x2="117.512" xlink:href="#a" y1="72.1749" y2="206.712"/><linearGradient id="d" gradientUnits="userSpaceOnUse" x1="153.701" x2="153.701" xlink:href="#a" y1="93.3021" y2="189.024"/><linearGradient id="e" gradientUnits="userSpaceOnUse" x1="112.941" x2="112.941" y1="61" y2="181.517"><stop offset="0"/><stop offset=".414296" stop-color="#fab961"/></linearGradient><linearGradient id="f"><stop offset="0"/><stop offset="1" stop-color="#fab961"/></linearGradient><linearGradient id="g" gradientUnits="userSpaceOnUse" x1="114.385" x2="114.385" xlink:href="#f" y1="90.2343" y2="188.239"/><linearGradient id="h" gradientUnits="userSpaceOnUse" x1="125.371" x2="125.371" xlink:href="#f" y1="84.4647" y2="178.692"/><path d="m0 0h268v268h-268z" fill="#000"/><path d="m174.639 104.116c-.5 1.323-29.128-13.3413-46.973-.736-10.476 8.651-14.234 22.885-10.476 35.397 2.03 6.757 3.015 9.523 6.349 14.285 2.444 3.492 5.873 7.302 10.634 10 1.086.802 15.673 9.588 33.385 7.503 27.859-3.277 49.442-39.855 49.442-39.855s-5.026 10.817-5.49 11.805c-13.454 28.635-35.81 36.267-35.81 36.267-19.872 6.784-39.761-1.9-41.956-3.005-14.352-7.22-20.545-13.888-22.474-17.51-3.145-5.908-11.029-28.99-3.474-46.236 5.599-12.7813 17.753-18.131 19.186-18.732 23.128-9.7031 48.112 9.615 47.657 10.817z" fill="url(#b)"/><path d="m174.64 104.116c-.94.875-7.691-7.2693-18.531-13.1514-3.099-1.6811-14.922-7.724-29.363-7.4138-23.938.5119-39.8461 18.1622-42.6829 21.4332-14.1787 16.349-20.8544 41.524-12.8793 61.114 10.3643 25.458 46.1952 43.255 42.5352 40.291l-3.173-1.205c-3.66-1.45-48.5723-21.458-50.1812-61.978-.9071-22.832 6.3968-41.323 10.819-46.3707 7.7268-8.8195 13.9223-13.0654 19.1454-15.8698 10.4948-5.6312 30.2328-10.4566 44.8818-8.24 16.436 2.488 26.753 14.0208 31.784 19.6448 4.539 5.0722 8.404 11.0387 7.645 11.7457z" fill="url(#c)"/><path d="m126.983 93.3021c-3.332 1.8225-6.305 4.2391-8.773 7.1309-2.05 2.43-5.709 7.59-7.518 19.236-1.551 9.981-3.261 20.99 1.96 32.917 8.479 19.36 28.452 25.733 33.214 27.253 12.178 3.742 25.212 3.622 37.32-.343 14.9-4.824 25.321-14.795 26.237-13.629.567.724-3.269 4.762-5.932 7.23-8.127 7.378-18.082 12.433-28.825 14.636-7.572 1.509-15.348 1.697-22.984.556-6.273-.922-24.933-3.643-39.264-19.556-4.013-4.457-15.3316-17.023-14.447-34.804.6385-12.809 7.287-21.86 9.542-24.847 5.17-6.714 11.838-12.1185 19.47-15.7799z" fill="url(#d)"/><path d="m174.64 104.116c1.11-.495-1.406-14.3339-11.21-25.8636-3.953-4.6591-8.713-8.5649-14.051-11.5297-22.065-12.014-47.705-1.7498-53.5776.6031-6.0157 2.4091-19.0136 7.814-29.7897 21.3208-12.1469 15.2264-13.9458 31.5624-14.6374 38.7134-2.9552 30.533 12.5137 54.62 13.9735 54.151 1.1175-.359-6.5143-15.468-4.9831-38.305.5833-8.694 1.8388-24.339 12.813-39.623 6.6478-9.0144 15.3515-16.3029 25.3839-21.2567 5.8054-2.8811 25.5064-12.6601 46.3074-5.2852 6.338 2.2929 12.173 5.793 17.184 10.3072 9.056 8.3147 11.678 17.1747 12.587 16.7677z" fill="url(#e)"/><path d="m137.468 188.173c-.521.891-30.165-7.082-43.6847-32.51-2.0349-3.825-12.6833-24.012-6.5184-39.886 2.5783-6.64 7.6543-14.073 9.7045-16.3819 3.3116-3.7289 10.5746-4.5971 17.7086-7.6349 3.206-1.3328 6.796-1.6323 10.236-2.0918 3.41-.4218 6.432-.3312 9.852 0 4.646.3071 23.772 6.1783 17.344 5.1634-6.032-.9524-19.578-4.2573-27.196 0-.696.389-1.481.8846-1.904 1.1518-6.153 3.869-11.502 8.8944-15.751 14.7994-1.478 2.099-7.7756 11.287-8.2741 23.152-.618 14.846 7.5021 25.677 12.2941 32.071 12.099 16.129 26.566 21.529 26.189 22.167z" fill="url(#g)"/><path d="m123.062 82.9044c6.244-.9042 11.587-1.2159 17.778 0 7.104 1.4334 11.034 2.9108 15.873 5.3967 8.264 4.246 18.724 15.1329 17.927 16.7679-1.419 2.912-35.426-22.4579-62.504-10.8279-14.5835 6.2629-24.4862 24.7599-25.8662 27.5559-3.3272 6.167-3.5258 11.319-3.8287 18.322-.2278 8.316 2.1013 14.891 4.226 20.887 3.0227 8.534 7.8882 17.636 7.782 17.686-.0051 0-.0225-.022-.0276-.028-15.852-23.205-17.5436-34.149-17.5436-34.149-.7151-4.622-3.7684-24.368 9.3919-41.038 11.9978-15.1958 32.1382-19.8918 36.7922-20.5726z" fill="url(#h)"/></svg>