<svg height="140" viewBox="0 0 140 140" width="140" xmlns="http://www.w3.org/2000/svg"><g fill="none" fill-rule="evenodd"><rect fill="#fff" height="140" rx="70" width="140"/><g fill-rule="nonzero" transform="translate(30 31)"><path d="m46.1910204 22.5785034-12.4342857-12.4342857c-.2429105-.23443639-.6278378-.23443639-.8707483 0l-4.9284354 4.9284354c-.2257824.2463409-.2257824.6244073 0 .8707483l12.2862585 12.3385034c3.0304548 3.0327542 3.0304548 7.9473818 0 10.980136-2.9806232 2.8652303-7.7024467 2.8304542-10.6405442-.0783673l-17.902585-17.9461225c-2.92931314-2.9418263-2.96801077-7.6861559-.0870749-10.6753741 1.4538184-1.4569419 3.4274949-2.27570641 5.4857143-2.27570641 2.0582195 0 4.031896.81876451 5.4857143 2.27570641l1.785034 1.785034c.2429105.2344364.6278378.2344364.8707483 0l4.9371429-4.92843539c.2257824-.24634091.2257824-.62440739 0-.8707483l-1.9330612-1.90693877c-2.9720516-2.97235485-7.0032006-4.64223191-11.2065307-4.64223191-4.20333 0-8.23447901 1.66987706-11.20653057 4.64223191-6.18104222 6.19597006-6.18104222 16.22579856 0 22.42176866l17.92870747 17.937415c2.9720516 2.9723548 7.0032006 4.6422319 11.2065306 4.6422319 4.2033301 0 8.2344791-1.6698771 11.2065306-4.6422319 6.1954507-6.1871895 6.203247-16.2249627.017415-22.4217687z" fill="#ea754b"/><path d="m74.9344218 4.64108844c-2.970565-2.97182533-7.0002723-4.6414854-11.2021769-4.6414854s-8.2316119 1.66966007-11.2021769 4.6414854l-12.0946939 12.13823126 5.7991837 5.7991837 12.1208163-12.1295238c2.9956468-2.82401106 7.6939298-2.75379338 10.6038456.1584786 2.9099158 2.912272 2.9763307 7.6106103.1498959 10.6039704l-1.9069387 1.9069387c-.2344364.2429105-.2344364.6278379 0 .8707483l4.9284353 4.9371429c.246341.2257824.6244074.2257824.8707483 0l1.9069388-1.9156463c6.163127-6.1787799 6.1748019-16.1763664.0261225-22.36952376z" fill="#34c69a"/><path d="m64.5115646 26.7319728c-.2463409-.2257824-.6244074-.2257824-.8707483 0l-12.4604081 12.4517007c-2.9680152 2.9650919-7.7770189 2.9650919-10.7450341 0-2.9267789-2.9668265-2.9267789-7.7346701 0-10.7014966l-5.8688435-5.8427211c-4.6947026 4.7287963-5.9363088 11.8862906-3.1085714 17.92 2.6168494 5.5492053 8.2059628 9.0852442 14.3412245 9.0732279 4.1938156.0004373 8.2158542-1.6660149 11.1804081-4.6324116l12.4604082-12.4342857c.2257824-.2463409.2257824-.6244074 0-.8707483z" fill="#34c69a"/><path d="m74.9344218 51.3741497-12.1295238-12.1904762-5.8253062 5.8427211 12.1295238 12.1382313c2.9255867 2.944066 2.9527027 7.6893586.0609524 10.6666666-1.4534668 1.4542754-3.4252762 2.2713468-5.4813605 2.2713468s-4.0278937-.8170714-5.4813606-2.2713468l-1.7937415-1.7937415c-.2463409-.2257824-.6244073-.2257824-.8707483 0l-4.9284353 4.9284354c-.2344364.2429105-.2344364.6278378 0 .8707483l1.7414966 1.7414966c6.2449922 6.2699716 16.3797035 6.3244175 22.6917006.1219048 6.1050592-6.210686 6.0662057-16.1804876-.0870748-22.3434014z" fill="#f6c94a"/><path d="m52.8522449 63.3208163c.2344364-.2429105.2344364-.6278378 0-.8707483l-12.4168708-12.4604081c-1.4357501-1.4226306-2.2434582-3.3600228-2.2434582-5.3812245s.8077081-3.958594 2.2434582-5.3812245c2.9629503-2.9362125 7.7385464-2.9362125 10.7014966 0l5.8427211-5.8601361c-4.7263332-4.699469-11.8870044-5.9416262-17.92-3.1085714-4.6706639 2.1993284-7.9782187 6.5347858-8.8654123 11.6205536-.8871936 5.0857679.7570608 10.2850503 4.407181 13.935909l12.4255783 12.4342857c.2429105.2344364.6278378.2344364.8707483 0z" fill="#f6c94a"/><g fill="#46aee2"><path d="m49.9004082 39.2272109c-.1630918-.4715411-.3520403-.9337382-.5659864-1.3844898-1.5706016-3.3414198-4.2551123-6.0320876-7.5929252-7.6103401-.4353742-.2089796-.8707483-.3918368-1.3409524-.557279-5.7595738-2.0810254-12.2027975-.6533427-16.5442177 3.6658504l5.7817687 5.8427211c.5392111-.5295072 1.1521789-.9782348 1.819864-1.3322449 2.9420016-1.54636 6.5469162-1.0072086 8.9077551 1.3322449 2.3495166 2.372424 2.8758563 6.000282 1.297415 8.942585-.3416077.642964-.7790892 1.2301876-1.297415 1.7414966l5.8340136 5.8340136c4.2999382-4.3224403 5.7389037-10.7283762 3.7006803-16.4745578zm-32.7401361 12.4255782 6.652517-6.652517-5.8253061-5.8165986-6.652517 6.652517c-.2257824.2463409-.2257824.6244074 0 .8707483l4.9284354 4.9371428c.2475459.2446382.6446217.2484933.8968707.0087075z"/><path d="m22.4370068 67.9183673c-2.9767773 2.9647546-7.7933404 2.9550083-10.7580951-.0217688-2.96475459-2.9767772-2.95500849-7.7933404.0217686-10.7580951l1.8895238-1.8982313c.2344364-.2429105.2344364-.6278378 0-.8707483l-4.92843539-4.9371428c-.24634092-.2257824-.62440739-.2257824-.8707483 0l-1.89823129 1.8982312c-4.39837058 3.9058785-6.27146469 9.9266281-4.86519703 15.6383671 1.40626766 5.7117389 5.86050959 10.1746568 11.56950121 11.5920363 5.7089917 1.4173795 11.7333748-.4439953 15.6478047-4.8347571l12.1904761-12.1382313-5.8688435-5.860136z"/></g></g></g></svg>