<svg enable-background="new 0 0 128 128" viewBox="0 0 128 128" xmlns="http://www.w3.org/2000/svg"><path d="m93.3 46.3c-.1-.2-.1-.4-.2-.6-.2-.6-.3-1.2-.6-1.8-2-5.7-5.9-10.7-10.8-14-.6-.4-1.1-.7-1.7-1.1-.1 0-.1-.1-.2-.1-.3-.2-.7-.3-1-.3-.8 0-1.5.4-1.9 1.1v.1l-1.3 2.4-2.8 4.8-2.5 4.3-6 10.4-.2.3-.3.5c-.1.3-.2.5-.2.8 0 1.2 1 2.2 2.2 2.2h.5.2.1l.5-.1 11.7-3.1 4.8-1.3 5.3-1.4 2.4-.6.7-.2c.7-.3 1.3-1.1 1.3-2 .1-.1.1-.2 0-.3zm-10.8.4-4.8 1.3-7.5 2 3.9-6.7 2.5-4.3 2.8-4.8c3.9 2.7 6.9 6.5 8.6 11z" fill="#0f0f0f"/><path d="m80.4 60.2c0 .2 0 .4-.1.6 0 .1-.1.2-.1.3-2.3 7.3-9.1 12.5-17.2 12.5-2.6 0-5-.5-7.2-1.5-1.3-.6-2.6-1.3-3.7-2.2s-2.2-1.9-3.1-3.1c-.3-.4-.6-.8-.9-1.2-.7-1.1-1.3-2.2-1.8-3.4-.5-1.3-.9-2.7-1.1-4.1-.1-.8-.2-1.6-.2-2.5 0-9.3 7-16.9 16.1-17.9h.5c1.4 0 2.4 1.1 2.4 2.5 0 .3-.1.6-.2.9l-.3.6c-.4.5-1 .9-1.6.9-.1 0-.1 0-.2 0-6.6.6-11.8 6.2-11.8 13v1.2c.1 1.5.5 2.9 1.1 4.1.2.4.4.8.6 1.2.4.8.9 1.5 1.5 2.1.4.5.9.9 1.4 1.3 1.1.9 2.4 1.7 3.7 2.2 1.5.6 3 .9 4.7.9 5.8 0 10.8-3.8 12.4-9.1 0-.1.1-.2.1-.3.3-.7.8-1.3 1.6-1.5.1 0 .2 0 .3-.1h.5c1.5.1 2.6 1.2 2.6 2.6z" fill="#fa8c16"/><path d="m91.4 56.9v.8c-1.2 14.7-13.4 26.3-28.4 26.3-4.5 0-8.7-1-12.4-2.9-1.3-.6-2.5-1.4-3.7-2.2s-2.3-1.7-3.3-2.7c-2.4-2.2-4.4-4.9-5.9-7.8-.6-1.1-1.1-2.3-1.5-3.5-.5-1.3-.8-2.7-1.1-4.1-.3-1.7-.5-3.4-.5-5.2 0-15.7 12.7-28.4 28.4-28.4 1.5 0 3 .1 4.5.3.2 0 .5.1.7.1 1 .3 1.7 1.3 1.7 2.3 0 .3-.1.7-.2 1l-.2.4c-.5.6-1.2 1-2 1h-.1c-.2 0-.4-.1-.7-.1-1.2-.2-2.4-.3-3.6-.3-13 0-23.5 10.5-23.5 23.5 0 1.3.1 2.6.3 3.9.2 1.4.6 2.8 1.1 4.1.4 1.2 1 2.4 1.6 3.5 1 1.7 2.2 3.3 3.6 4.8 1 1 2.1 2 3.3 2.8s2.4 1.6 3.7 2.2c3 1.4 6.4 2.2 10 2.2 12.4 0 22.6-9.6 23.4-21.8 0-.2 0-.3 0-.5.1-.8.7-1.5 1.5-1.9l.6-.2h.3c1.2.2 2.3 1.2 2.4 2.4z" fill="#0f0f0f"/><path d="m7.8 100.8c-.7 0-1.4-.1-2.1-.4-.6-.2-1.2-.6-1.6-1-.5-.4-.8-.9-1.1-1.5s-.4-1.3-.4-2 .1-1.4.4-2 .6-1.1 1.1-1.5 1-.8 1.6-1 1.3-.4 2.1-.4h4.7v2.5h-4.8c-.3 0-.7.1-.9.2-.3.1-.5.3-.7.5s-.4.5-.5.7c-.1.3-.2.6-.2 1 0 .3.1.7.2 1s.3.5.5.7.5.4.7.5c.3.1.6.2.9.2h4.9v2.5z"/><path d="m21.6 100.8-1.9-2.5h-2.3v-2.3h3.3c.4 0 .7-.1.9-.3s.3-.5.3-.9-.1-.7-.3-.9-.5-.3-.9-.3h-4.1v7.2h-2.6v-9.7h6.7c.6 0 1.1.1 1.5.3.5.2.9.4 1.2.7s.6.7.8 1.1.3.9.3 1.5c0 .7-.2 1.4-.5 2-.4.6-.8 1-1.4 1.3l2.4 2.8z"/><path d="m30.1 100.8c-.6 0-1.2-.1-1.8-.3-.5-.2-1-.5-1.4-.9s-.7-.8-.9-1.3-.3-1.1-.3-1.7v-5.5h2.6v5.3c0 .6.2 1 .5 1.4.3.3.8.5 1.3.5h2.1c.5 0 1-.2 1.3-.5s.5-.8.5-1.4v-5.3h2.6v5.5c0 .6-.1 1.2-.3 1.7s-.5 1-.9 1.3c-.4.4-.9.7-1.4.9s-1.1.3-1.8.3z"/><path d="m38 100.8v-2.5h7.2c.2 0 .3-.1.5-.2.1-.1.2-.3.2-.5s-.1-.4-.2-.5-.3-.1-.5-.1h-4.2c-.4 0-.9-.1-1.2-.2-.4-.1-.7-.3-1-.6s-.5-.6-.6-.9c-.2-.4-.2-.8-.2-1.2s.1-.8.2-1.2c.2-.4.4-.7.6-.9.3-.3.6-.5 1-.6s.8-.2 1.2-.2h7.4v2.5h-7.2c-.2 0-.3.1-.5.2-.1.1-.2.3-.2.5s.1.4.2.5.3.2.5.2h4.3c.5 0 .9.1 1.3.2s.7.3 1 .6.5.6.6.9c.2.4.2.8.2 1.2s-.1.9-.2 1.2c-.2.4-.4.7-.6.9-.3.3-.6.5-1 .6s-.8.2-1.3.2h-7.5z"/><path d="m52.8 100.8v-7.2h-3.6v-2.5h9.8v2.5h-3.6v7.2z"/><path d="m59.7 100.8v-2.5h7.2c.2 0 .3-.1.5-.2.1-.1.2-.3.2-.5s-.1-.4-.2-.5c-.2-.1-.3-.1-.5-.1h-4.3c-.4 0-.9-.1-1.2-.2-.4-.1-.7-.3-1-.6s-.5-.6-.6-.9c-.2-.4-.2-.8-.2-1.2s.1-.8.2-1.2c.2-.4.4-.7.6-.9.3-.3.6-.5 1-.6s.8-.2 1.2-.2h7.4v2.5h-7.2c-.2 0-.3.1-.5.2-.1.1-.2.3-.2.5s.1.4.2.5.3.2.5.2h4.2c.5 0 .9.1 1.3.2s.7.3 1 .6.5.6.6.9c.2.4.2.8.2 1.2s-.1.9-.2 1.2c-.2.4-.4.7-.6.9-.3.3-.6.5-1 .6s-.8.2-1.3.2h-7.3z"/><path d="m78 100.8v-3.9c0-.8-.4-1.3-1.3-1.3h-2.5v5.2h-2.5v-10.4h2.5v3h2.6c1.2 0 2.2.3 2.8.9s.9 1.5.9 2.6v3.9z"/><path d="m84.4 100.8c-.8 0-1.4-.2-1.8-.6s-.6-.9-.6-1.6.2-1.2.6-1.6 1-.6 1.8-.6h2.8v1.4h-2.2c-.4 0-.6.2-.6.5s.2.5.5.5h3v-2.1c0-.8-.4-1.3-1.3-1.3h-4.1v-2.1h4.2c1.2 0 2.2.3 2.8.9s.9 1.5.9 2.6v3.9h-6z"/><path d="m95.9 100.8c-.6 0-1.1-.1-1.6-.3s-.9-.4-1.3-.8c-.4-.3-.6-.7-.8-1.2s-.3-1-.3-1.6c0-1.1.3-2 1-2.7s1.7-1 3-1c.3 0 .6 0 .9.1.3 0 .6.1.9.2v2.3c-.3-.1-.5-.1-.8-.1s-.5-.1-.7-.1c-.6 0-1 .1-1.3.3s-.5.6-.5 1.1.1.9.4 1.2.6.4 1.1.4h1.3c.9 0 1.3-.4 1.3-1.3v-6.9h2.5v6.9c0 1.1-.3 2-.9 2.6s-1.6.9-2.8.9z"/><path d="m106.4 100.8c-.6 0-1.1-.1-1.6-.3s-.9-.4-1.3-.8c-.4-.3-.6-.7-.8-1.2s-.3-1-.3-1.5.1-1 .3-1.5.5-.9.8-1.2c.4-.3.8-.6 1.3-.8s1-.3 1.6-.3h1c.6 0 1.1.1 1.6.3s.9.4 1.3.8c.4.3.6.7.8 1.2s.3 1 .3 1.5c0 .6-.1 1.1-.3 1.5-.2.5-.5.9-.8 1.2-.4.3-.8.6-1.3.8s-1 .3-1.6.3zm1-2.3c.4 0 .8-.1 1.1-.4s.4-.6.4-1.1c0-.4-.1-.8-.4-1.1s-.6-.4-1.1-.4h-1.1c-.4 0-.8.1-1.1.4s-.4.6-.4 1.1c0 .4.1.8.4 1.1s.6.4 1.1.4z"/><path d="m121.4 100.8c-.3 0-.5-.1-.7-.2s-.3-.3-.4-.6l-1.5-4.4-1.5 4.4c-.2.5-.5.7-1.1.7h-1c-.3 0-.5-.1-.7-.2s-.3-.4-.4-.7l-1.7-6.6h2.4l1.2 4.8 1.4-4c.2-.5.5-.7 1.1-.7h.8c.6 0 .9.2 1.1.7l1.4 4.1 1.1-4.9h2.4l-1.7 6.6c-.1.3-.2.5-.4.7-.2.1-.4.2-.7.2h-1.1z"/><path d="m96.1 89.8c0-.1.1-.2.1-.2 1.5-1 3-1.9 4.5-2.9.5-.3.8-.1 1.1.3-.2.2-.5.2-.5.5-.2.8-.7 1.2-1.4 1.5-.4.1-.3.5-.2.8-1.3-1.4-2.4.1-3.6 0z" fill="#020202"/></svg>