<svg fill="none" height="744" viewBox="0 0 755 744" width="755" xmlns="http://www.w3.org/2000/svg"><g fill="#e8662d"><path d="m754.116 352.174c-1.449-23.188-4.348-47.826-10.145-69.565-5.797-23.189-13.044-44.928-23.188-66.667-10.145-21.739-21.74-40.58-34.783-59.42-13.044-18.841-28.986-36.232-46.377-52.174-15.942-15.9422-34.783-30.435-53.623-42.0292-20.29-13.0434-40.58-24.6376-60.87-33.3333-20.29-8.6956-42.029-15.942-63.768-20.28985-21.739-4.34782-43.478-7.24637-65.217-8.69565-5.797 0-11.594 0-18.841 0-17.391 0-36.232 1.44928-53.623 4.34783-20.29 2.89855-39.13 7.24637-57.971 13.04347-20.29 5.7971-40.58 14.4928-60.87 24.6377-23.188 10.1449-44.927 24.6377-65.217 42.029-13.043 10.1449-26.087 21.739-37.681 34.783-14.4928 15.942-28.9856 33.333-40.5798 52.173-11.5942 18.841-21.7391 37.682-30.4347 57.972-8.6957 20.289-15.9421 40.579-20.2899 62.318-5.7971 20.29-8.69565 42.029-10.144924 63.768v17.392c0 15.942 1.449274 31.884 2.898554 47.826 2.89855 21.739 7.24637 42.029 14.49277 62.319 5.7971 20.29 14.4927 40.579 24.6377 59.42 10.1449 18.841 20.2898 36.232 33.3333 52.174 11.5942 17.391 26.087 31.884 40.58 46.377 14.492 14.492 30.434 26.087 47.826 37.681 17.391 11.594 34.782 21.739 53.623 30.435 17.391 8.695 36.232 15.942 56.522 20.29 18.84 5.797 39.13 8.695 59.42 11.594 14.493 1.449 28.986 2.898 44.928 2.898h15.942c20.289-1.449 40.579-2.898 60.869-7.246s40.58-10.145 59.42-17.391c20.29-7.247 39.131-15.942 56.522-27.537 18.841-11.594 36.232-23.188 52.174-37.681 17.391-14.493 31.884-28.985 46.377-46.377 14.493-17.391 27.536-36.232 37.681-55.072 11.594-20.29 20.29-40.58 27.536-62.319 7.247-21.739 13.044-44.927 15.942-68.116 2.899-15.942 2.899-33.333 2.899-50.724 0-5.798 0-11.595 0-18.841zm-420.29 371.014c4.348-44.927 7.246-76.811 8.696-101.449 13.043 1.449 26.087 2.899 40.579 2.899 1.45 15.942 2.899 31.884 4.348 43.478 1.449 15.942 2.899 34.783 4.348 56.522-4.348 0-8.696 0-13.043 0-15.942 1.449-30.435 0-44.928-1.45zm-275.3623-189.855c14.4927-7.246 30.4348-14.492 44.9273-21.739 17.392-8.695 36.232-17.391 53.623-26.087 5.798 11.594 13.044 23.189 20.29 34.783-7.246 5.797-14.492 10.145-17.391 13.043-26.087 18.841-36.232 26.087-69.5653 50.725-11.5942-15.942-23.1884-31.884-31.884-50.725zm-39.1304-178.261c1.4492-20.289 4.3478-40.579 8.6956-59.42 23.1884 5.797 43.4783 11.594 52.1739 14.493 10.1449 2.898 33.3332 8.696 52.1742 14.493 1.449 0 2.898 0 2.898 1.449-2.898 13.043-4.348 26.087-4.348 40.58-33.3329-2.899-75.3619-7.247-107.2459-10.145-1.4493 0-2.8986 0-2.8986 0-1.4492 0-1.4492-1.45-1.4492-1.45zm133.3337-257.9706c23.188 23.1886 44.927 50.7246 68.116 82.6086-11.595 8.696-21.74 18.841-30.435 30.435-13.044-13.044-27.536-27.536-40.58-42.029-11.594-11.594-23.188-24.638-34.783-36.232 11.595-13.043 23.189-24.638 37.682-34.7826zm224.637-79.7101h15.942c-1.449 14.4928-2.898 27.5362-2.898 39.1304-1.45 20.2899-4.348 42.029-5.797 63.7683-1.45 0-1.45 0-2.899 0-14.493 0-28.985 1.449-43.478 4.348-4.348-36.2322-8.696-69.5655-13.044-102.8989 17.392-2.8985 34.783-4.3478 52.174-4.3478zm188.406 426.0867c-4.348 11.594-10.145 23.189-17.391 33.334-5.797 10.145-14.493 20.289-21.739 28.985-8.696 8.696-17.392 15.942-26.087 23.189-8.696 7.246-18.841 13.043-28.986 18.84-10.145 4.348-20.29 10.145-30.435 13.044-10.145 2.898-20.289 5.797-31.884 7.246-8.695 1.449-17.391 1.449-27.536 1.449-1.449 0-2.898 0-4.348 0-10.145 0-20.29-1.449-30.435-2.898-10.144-1.45-20.289-4.348-28.985-7.247-10.145-2.898-18.841-7.246-27.536-11.594-8.696-4.348-17.392-10.145-26.087-15.942-7.247-5.797-15.942-11.594-21.739-18.84-7.247-7.247-13.044-14.493-20.29-23.189-5.797-8.696-11.594-17.391-15.942-26.087s-8.696-18.84-11.594-28.985c-2.899-10.145-5.798-20.29-7.247-30.435s-2.898-20.29-2.898-30.435v-1.449c0-10.145 1.449-21.739 2.898-31.884 1.449-11.594 4.348-21.739 8.696-31.884s8.695-20.29 13.043-30.435c5.797-10.145 11.595-18.841 18.841-27.536 7.246-8.696 14.493-15.942 23.188-24.638 8.696-7.246 17.392-14.493 27.537-20.29 10.144-5.797 20.289-11.594 30.434-15.942 11.595-4.348 21.739-7.246 33.334-10.145 11.594-2.898 23.188-2.898 36.232-2.898h2.898c11.594 0 23.188 1.449 34.783 2.898 11.594 1.449 24.637 5.797 34.782 10.145 11.595 4.348 23.189 10.145 33.334 17.391 10.145 7.247 20.289 14.493 30.434 23.189 10.145 8.695 18.841 18.84 26.087 28.985 7.247 10.145 14.493 21.739 18.841 33.334 5.797 11.594 10.145 24.637 13.043 37.681 2.899 13.043 4.348 26.087 4.348 39.13v4.348c0 11.594-1.449 23.188-2.898 34.783 0 11.594-2.899 23.188-8.696 34.782zm21.739-217.391c15.942-11.594 33.334-23.188 46.377-33.333 5.797-4.348 17.391-11.595 26.087-18.841 1.449-1.449 5.797-4.348 8.696-5.797 13.043 17.391 24.637 37.681 33.333 57.971-24.638 11.594-55.073 26.087-91.304 43.478-5.798-15.942-13.044-30.435-23.189-43.478zm-31.884-37.681c-11.594-11.594-24.638-20.29-37.681-28.986 20.29-30.434 40.58-60.8693 56.522-82.6084 18.84 11.5942 36.232 26.0874 50.724 40.5794-21.739 23.189-44.927 46.377-69.565 71.015zm-63.768-85.507c-1.449 2.898-7.246 15.942-15.942 36.231-14.493-5.797-28.986-10.144-44.928-13.043 2.899-10.145 4.348-15.942 4.348-17.391 2.899-8.696 7.247-30.4351 11.594-46.3772 1.45-7.2463 5.798-18.8405 8.696-34.7826 20.29 4.3479 40.58 11.5942 60.87 18.8406-13.044 30.4348-23.189 53.6232-24.638 56.5222zm-217.391-52.1744c4.348 14.4928 11.594 47.8261 18.84 73.9134 1.45 2.898 1.45 7.246 2.899 11.594-14.493 4.348-27.536 11.594-40.58 18.84-7.246-17.391-14.493-30.434-15.942-36.231-2.898-8.696-14.493-31.8845-27.536-60.87 18.84-8.6956 37.681-17.3913 57.971-23.1884 1.449 5.7971 2.898 11.5942 4.348 15.942zm-110.145 194.2034c-7.247 11.594-13.044 24.637-18.841 39.13-20.29-10.145-43.478-21.739-69.565-33.333-10.1449-4.348-20.2899-10.145-30.4348-14.493 8.6957-18.841 17.3913-37.681 28.9855-55.073 27.5363 18.841 59.4203 42.029 89.8553 63.769zm-123.1886 172.463c23.1884-1.449 59.4206-5.797 91.3046-8.695 1.449 13.043 4.348 27.536 8.695 40.579-1.449 0-4.347 1.45-5.797 1.45-30.434 8.695-71.0142 18.84-99.9997 27.536-5.7971-18.841-10.1449-39.131-13.0435-59.42 5.7971-1.45 11.5942-1.45 18.8406-1.45zm162.3186 134.783c8.696 8.696 18.841 17.391 30.435 24.638-21.739 31.884-40.58 59.42-46.377 68.116-4.348 5.797-8.695 13.043-13.043 18.84-15.942-10.145-30.435-23.188-44.928-36.232 24.638-24.637 50.725-50.724 73.913-75.362zm63.768 46.377c11.595 5.797 23.189 11.594 36.232 15.942-2.898 8.695-10.145 37.681-17.391 63.768-2.899 11.594-5.797 23.188-8.696 34.783-18.84-5.798-36.232-11.595-53.623-20.29 13.044-27.537 27.536-59.421 43.478-94.203zm176.812 102.898c-2.899-13.043-10.145-36.232-14.493-53.623-1.449-5.797-4.348-14.493-7.246-26.087 14.493-2.898 27.536-5.797 40.579-10.145 7.247 14.493 13.044 27.536 14.493 33.334 1.45 4.347 11.594 26.087 26.087 57.971-18.84 7.246-37.681 13.043-56.522 15.942 0-5.798-1.449-11.595-2.898-17.392zm100-46.377c-7.246-10.144-23.188-34.782-40.58-59.42 13.044-7.246 24.638-15.942 36.232-24.637 11.594 11.594 24.638 24.637 36.232 37.681 11.594 11.594 21.739 23.188 33.333 33.333-15.942 13.043-31.884 24.638-50.724 34.783-4.348-7.247-10.145-14.493-14.493-21.74zm89.855-71.014c-18.841-13.044-44.928-33.333-60.87-44.928 10.145-11.594 18.841-24.637 27.537-37.681 7.246 2.899 11.594 5.797 13.043 5.797 4.348 2.899 27.536 13.044 49.276 23.189 8.695 4.348 18.84 8.695 27.536 13.043-10.145 18.841-23.189 36.232-36.232 52.174-7.247-2.898-13.044-7.246-20.29-11.594zm8.696-118.841c-7.247-1.449-14.493-4.347-21.74-5.797 5.798-14.492 8.696-30.434 11.595-46.377 28.985 2.899 55.072 4.348 72.463 5.798 10.145 1.449 18.841 1.449 27.537 2.898-2.899 21.739-8.696 43.478-15.942 63.768-23.189-7.246-55.073-15.942-73.913-20.29zm71.014-108.695c-24.638 1.449-56.522 4.348-78.261 7.246 0-17.391-2.898-33.333-7.246-49.275 24.638-7.247 46.377-13.044 95.652-26.087h1.449c5.797 21.739 8.696 43.478 10.145 66.666-7.246 0-14.492 0-21.739 1.45z"/><path d="m349.768 415.948c-1.449-1.449-2.898-2.899-4.348-2.899-1.449-1.449-1.449-1.449-2.898-2.898-1.45-1.45-2.899-2.899-4.348-4.348s-1.449-2.899-2.899-4.348c0-1.449-1.449-1.449-1.449-2.898 0 0 0-1.45-1.449-1.45 0-1.449-1.449-2.898-1.449-5.797 0-1.449-1.45-4.348-1.45-5.797s0-2.898 0-4.348v-1.449c0-2.899 0-4.348 0-4.348s-4.348 0-17.391 0c-8.696 0-20.29 0-37.681 0-31.884 0-55.073 0-56.522 0v1.449 23.189 4.348c1.449 8.695 2.899 17.391 4.348 26.087 2.898 8.695 5.797 15.942 8.696 24.637 4.347 8.696 8.695 15.942 13.043 21.739 4.348 4.348 7.246 10.145 13.043 14.493 1.45 1.449 2.899 2.899 5.798 4.348 4.347 4.348 10.145 8.696 15.942 13.043 1.449 1.45 2.898 1.45 4.347 2.899 4.348 2.899 10.145 7.246 11.595 7.246 0 0 1.449-2.898 4.347-5.797 1.45-2.898 10.145-15.942 17.392-27.536 7.246-11.594 18.84-28.985 26.087-40.58 0 0 0-1.449 1.449-1.449l13.043-20.29h-1.449c-4.348-5.797-5.797-5.797-5.797-7.246z"/><path d="m316.436 253.629c2.898 4.348 8.695 15.942 20.29 37.681 2.898 5.797 5.797 11.594 10.144 17.391 4.348 8.696 8.696 14.493 8.696 15.942h2.899 1.449c2.898-1.449 5.797-1.449 8.696-2.898 2.898 0 5.797-1.449 8.695-1.449h2.899 13.043c4.348 0 7.247 1.449 11.594 2.898h1.45 1.449s1.449-2.898 4.348-7.246c0-1.449 1.449-2.899 2.898-5.797 5.797-11.594 18.841-33.334 24.638-42.029 1.449-2.899 5.797-10.145 8.696-14.493 2.898-4.348 7.246-13.043 10.145-17.391 2.898-5.797 5.797-10.145 5.797-10.145v-1.45l-5.797-2.898c-5.797-2.899-11.595-5.797-17.392-8.696-10.145-4.348-20.29-7.246-30.434-10.145-4.348-1.449-8.696-1.449-13.044-1.449s-11.594 0-18.841 0c-4.347 0-7.246 0-10.144 0-7.247 1.449-14.493 2.899-21.74 4.348-10.145 2.898-18.84 5.797-28.985 10.145-5.797 2.898-14.493 7.246-15.942 8.695 0 0 2.898 5.798 10.145 17.392 1.449 4.348 2.898 7.246 4.348 11.594z"/><path d="m414.987 389.85c1.449-2.899 1.449-5.797 2.898-7.247 1.45-2.898 1.45-7.246 1.45-10.144 0-1.45 0-1.45 0-1.45 0-2.898 0-5.797-1.45-8.695 0-1.45-1.449-4.348-1.449-5.798-1.449-1.449-1.449-2.898-2.898-4.347-1.45-1.45-2.899-4.348-4.348-5.797-1.449-1.45-1.449-1.45-2.899-2.899-2.898-2.899-5.797-4.348-8.695-5.797-2.899-1.449-7.247-2.899-10.145-2.899h-1.45c-2.898 0-5.797 0-8.695 0-2.899 0-7.247 1.45-10.145 2.899-2.899 1.449-5.797 2.898-8.696 4.348-1.449 1.449-4.348 2.898-5.797 4.348l-1.449 1.449c-1.449 1.449-2.899 4.348-4.348 7.246-1.449 2.899-2.899 4.348-2.899 7.247 0 1.449-1.449 2.898-1.449 5.797v7.246 4.348c0 1.449 0 2.898 1.449 5.797v1.449 1.45c0 1.449 1.45 1.449 1.45 2.898s1.449 1.449 1.449 2.899c0 1.449 1.449 1.449 1.449 2.898 0 0 0 1.449 1.45 1.449 1.449 1.45 1.449 1.45 2.898 2.899l1.449 1.449c1.45 1.45 1.45 1.45 2.899 2.899s1.449 1.449 2.898 1.449c1.45 0 1.45 1.449 2.899 1.449s2.899 1.45 4.348 1.45 2.898 1.449 4.348 1.449c1.449 0 4.348 0 5.797 1.449h5.797c2.898 0 4.348 0 7.246-1.449 2.899-1.449 5.797-1.449 7.247-2.899 2.898-1.449 5.797-2.898 8.695-5.797 2.899-2.898 4.348-4.348 5.797-7.246 2.899-4.348 2.899-4.348 2.899-5.797z"/><path d="m545.421 373.91h-23.188-31.884-55.073v1.449c0 2.899-1.449 4.348-1.449 7.247-1.449 4.348-1.449 8.695-4.348 13.043 0 1.45-1.449 1.45-1.449 2.899-1.45 2.898-2.899 5.797-4.348 7.246-2.899 4.348-4.348 7.247-7.246 8.696-1.45 1.449-2.899 1.449-2.899 2.898-1.449 1.45-2.899 1.45-2.899 2.899 0 0 1.45 1.449 2.899 4.348 5.797 8.695 15.942 26.087 27.536 43.478 11.594 18.841 23.189 36.232 24.638 39.131 0 1.449 1.449 2.898 4.348 5.797 1.449 2.898 2.898 4.347 2.898 4.347s5.797-2.898 10.145-5.797c1.449 0 1.449-1.449 2.899-1.449 8.695-5.797 14.493-11.594 21.739-17.391 7.246-7.247 13.043-14.493 18.84-21.739 0-1.45 1.45-1.45 1.45-2.899 5.797-8.696 10.145-18.841 14.493-28.985 2.898-10.145 5.797-20.29 7.246-30.435v-1.449c0-7.247 1.449-21.74 0-27.537z"/></g></svg>