<svg fill="none" height="200" viewBox="0 0 200 200" width="200" xmlns="http://www.w3.org/2000/svg" xmlns:xlink="http://www.w3.org/1999/xlink"><linearGradient id="a" gradientUnits="userSpaceOnUse" x1="171.581" x2="28.5482" y1="120.946" y2="120.946"><stop offset="0" stop-color="#ef18ac"/><stop offset="1" stop-color="#fad972"/></linearGradient><linearGradient id="b" gradientUnits="userSpaceOnUse" x1="171.586" x2="28.5536" y1="95.7346" y2="95.7346"><stop offset="0" stop-color="#5314f1"/><stop offset="1" stop-color="#04e2ff"/></linearGradient><path d="m0 0h200v200h-200z" fill="#fff"/><path clip-rule="evenodd" d="m63.0641 96.3672-29.6203 13.3098c-6.5847 2.958-6.5668 12.308.0292 15.241l73.031 32.48c4.367 1.942 9.359 1.922 13.71-.057l46.499-21.137c6.536-2.971 6.524-12.253-.019-15.207l-29.24-13.201-17.237 7.835c-4.352 1.979-9.343 1.999-13.711.057z" fill="url(#a)" fill-rule="evenodd"/><path d="m80.8013 42.4841c4.367-1.9622 9.3665-1.9578 13.73.0123l72.1707 32.5836c6.543 2.9543 6.555 12.2365.019 15.2075l-46.499 21.1375c-4.351 1.978-9.343 1.998-13.71.056l-73.0309-32.4797c-6.596-2.9335-6.614-12.283-.0293-15.2417z" fill="url(#b)"/></svg>