<svg fill="none" height="48" viewBox="0 0 48 48" width="48" xmlns="http://www.w3.org/2000/svg" xmlns:xlink="http://www.w3.org/1999/xlink"><linearGradient id="a" gradientUnits="userSpaceOnUse" x1="24" x2="22.9068" y1="-1.18095" y2="48.5093"><stop offset="0" stop-color="#020100"/><stop offset="1" stop-color="#1b0e00"/></linearGradient><rect fill="url(#a)" height="48" rx="24" width="48"/><rect fill="#120901" height="48" rx="24" width="48"/><path d="m30.2158 23.5225c-.223 0-.4461.0278-.6412.1394-.2509.1672-.4461.5575-.4461.9199 0 .3067.2788.697.5855.8643.8642.446 1.7842-.5576 1.3382-1.3939-.1394-.3067-.5018-.5019-.8364-.5297z" fill="#ff8500"/><path d="m23.2322 17.5565c.3066.0557.7527 1.1151.8363 2.0072.0279.1952 0 .6134 0 .92-.0279.474-.0836.6134-.2509.8364-.3624.5297-1.0315.8642-1.8957.92-.2509.0279-.6691.0557-.8922.0557-.3624-.0278-.3903-.0278-.3345-.1672.0279-.0558.1115-.2509.1673-.4182.3624-1.1151 1.1709-2.8994 1.5891-3.4569.2787-.4182.6133-.7249.7806-.697zm-.2788-2.4254c-.1394 0-.3067.0278-.5576.1115-.3624.1115-.697.3066-1.0036.5575-.4461.3346-.5018.3625-.5297.2231-.0279-.2231-.3903-.5297-.7249-.5576-.3345-.0558-.7527.1115-.92.3624-.0836.1115-.3066.474-.5297.8364-.3903.6691-.5297 1.143-.3903 1.4218.0837.1673.0558.3624-.1951 1.5612-.4461 2.1745-1.1709 6.663-1.1709 7.5272-.0279 1.9515 0 3.7915.0279 4.1539.0836.5576.2788.9479.6412 1.1988s.5575.3067.9478.1951c.3903-.0836.5855-.223.8085-.5297.2509-.3624.3067-.7527.3067-2.4533-.0279-2.063.2509-5.3248.4182-5.5199.0557-.0279.4181-.0558.8363 0 1.5612.1394 2.8436-.1394 3.8194-.8643 1.0594-.7806 1.5054-1.6727 1.5891-3.1781.0836-1.9794-.5576-3.7358-1.7006-4.6279-.3624-.2509-.474-.2788-1.0315-.3624-.2788-.0557-.474-.0836-.6412-.0557z" fill="#fff"/></svg>