<?xml version="1.0" encoding="UTF-8"?>
<svg width="18px" height="18px" viewBox="0 0 18 18" version="1.1" xmlns="http://www.w3.org/2000/svg" xmlns:xlink="http://www.w3.org/1999/xlink">
    <title>形状</title>
    <defs>
        <path d="M403,25 L403,25 C403,20.0294353 407.029435,16 412,16 C416.970565,16 421,20.0294353 421,25 C421,25 421,25 421,25 L421,25 C421,29.9705647 416.970565,34 412,34 C407.029435,34 403,29.9705647 403,25 L403,25 Z M406.42137,23.3805875 C406.42137,23.3854948 406.42137,23.3933465 406.423333,23.3992353 L406.425296,23.4218089 L406.427259,23.4375123 L406.431185,23.4620488 L406.433148,23.4757893 L406.439037,23.5003258 L406.440999,23.5121033 L406.446888,23.5346769 C406.448851,23.5386028 406.448851,23.5444916 406.449833,23.5484174 C406.451796,23.5562691 406.453758,23.5641208 406.457684,23.5690281 L406.463573,23.5847315 L406.471425,23.6043607 L406.477314,23.6210455 L406.485165,23.6387118 L406.492035,23.6583411 C406.493998,23.6612854 406.495961,23.6681557 406.499887,23.6711001 C406.503813,23.6789517 406.507739,23.6848405 406.509702,23.6917107 L406.509702,23.6917107 C406.511584,23.6960799 406.514244,23.7000706 406.517553,23.7034883 L406.529331,23.7250804 L406.529331,23.7250804 C406.531015,23.7290307 406.533336,23.7326778 406.536201,23.7358765 L406.549942,23.7574686 L406.557793,23.7692462 L406.572515,23.7898569 L406.58233,23.8016344 L406.59607,23.8183192 L406.609811,23.8340226 L406.620607,23.8477631 L406.648088,23.8762255 L406.67655,23.9027249 L406.690291,23.9145025 L406.705013,23.9282429 C406.710901,23.9341317 406.71679,23.9380575 406.722679,23.9410019 L406.734456,23.9508165 L406.755067,23.9665199 L406.766845,23.9743716 C406.774696,23.977316 406.779604,23.9841862 406.787455,23.9871306 C406.791381,23.9890935 406.795307,23.9910564 406.799233,23.9949823 L406.819843,24.0067598 C406.823769,24.0087227 406.827695,24.0106857 406.831621,24.0146115 L406.853213,24.0244261 C406.857139,24.0254076 406.863028,24.0273705 406.865972,24.0312963 C406.871861,24.0352222 406.879713,24.0371851 406.885601,24.039148 L406.902286,24.0469997 L406.919953,24.0528885 C406.925841,24.0548514 406.933693,24.0587773 406.939582,24.0597587 L406.954304,24.0656475 L406.975896,24.0734992 C406.979822,24.0754621 406.98571,24.0754621 406.988655,24.077425 L407.01221,24.0833138 L407.024969,24.0872396 L407.050487,24.0931284 L407.063246,24.0950913 L407.063246,24.0950913 C407.071572,24.0973802 407.080135,24.0986976 407.088764,24.0990172 L407.103486,24.0999986 L407.103486,24.0999986 C407.111222,24.1016496 407.119138,24.1023092 407.127041,24.1019616 L407.14667,24.1039245 L407.163355,24.1058874 L407.202613,24.1078503 L416.750276,24.1078503 L416.750276,24.1078503 C417.184184,24.1078503 417.535936,23.7560981 417.535936,23.3221906 C417.535936,22.8882831 417.184184,22.5365308 416.750276,22.5365308 L409.099786,22.5365308 L409.597387,22.0379485 L409.597387,22.0379485 C409.918733,21.7467823 409.943198,21.2502434 409.652032,20.9288973 C409.360866,20.6075511 408.864327,20.5830855 408.542981,20.8742517 C408.52388,20.8915589 408.505643,20.9097961 408.488335,20.9288973 L406.650058,22.7652113 L406.622577,22.7946552 C406.618652,22.7975995 406.614726,22.8044698 406.611781,22.8074142 L406.598041,22.8231175 L406.598041,22.8231175 C406.592899,22.8281918 406.588294,22.833783 406.5843,22.8398024 L406.574486,22.8515799 L406.559764,22.8721906 L406.551912,22.8839681 L406.538172,22.9055603 C406.536209,22.9094861 406.534246,22.913412 406.53032,22.9163563 L406.519524,22.9379485 L406.519524,22.9379485 C406.517642,22.9423176 406.514981,22.9463083 406.511672,22.949726 C406.507746,22.9565963 406.503821,22.962485 406.501858,22.9703367 C406.499895,22.9742626 406.497932,22.9801513 406.494006,22.9840772 C406.49008,22.9899659 406.489099,22.9968362 406.487136,23.0037064 L406.479284,23.0203912 L406.473395,23.0370761 L406.465544,23.0567053 L406.459655,23.0724087 L406.451803,23.0930194 C406.44984,23.0969452 406.44984,23.102834 406.448859,23.1067598 L406.44297,23.1293334 C406.441007,23.1332593 406.441007,23.1371851 406.441007,23.141111 L406.435118,23.1656475 L406.433155,23.179388 L406.433155,23.179388 C406.43094,23.1873957 406.429623,23.1956253 406.429229,23.2039245 L406.427267,23.2196279 C406.425304,23.2274796 406.425304,23.2353313 406.425304,23.2422015 L406.423341,23.2618307 L406.421378,23.2814599 L406.419415,23.3197369 C406.419415,23.3324959 406.419415,23.3462364 406.421378,23.3580139 C406.419415,23.3678285 406.421378,23.3727358 406.421378,23.3786246 L406.42137,23.3805875 Z M417.401967,27.1729578 L417.401967,27.1729578 C417.406767,27.1678365 417.411041,27.162247 417.414726,27.1562729 L417.42454,27.1444954 L417.440244,27.1238847 L417.448095,27.1121072 C417.45104,27.1042555 417.45791,27.0983667 417.460854,27.090515 L417.460854,27.090515 C417.462836,27.0864945 417.465492,27.082843 417.468706,27.079719 L417.480484,27.0581268 L417.480484,27.0581268 C417.482366,27.0537577 417.485026,27.049767 417.488335,27.0463493 L417.49815,27.0257386 C417.499131,27.0218127 417.501094,27.015924 417.50502,27.0119981 C417.508946,27.0061094 417.510909,26.9992391 417.512872,26.9923689 L417.520724,26.9756841 L417.526612,26.9589992 L417.533483,26.93937 L417.539371,26.9236666 L417.547223,26.9030559 L417.551149,26.8893155 L417.557038,26.8667419 C417.559001,26.862816 417.559001,26.8588902 417.559001,26.8549643 L417.564889,26.8304278 L417.566852,26.8166873 L417.566852,26.8166873 C417.569068,26.8086796 417.570385,26.80045 417.570778,26.7921508 L417.57176,26.7764474 C417.573722,26.7685957 417.573722,26.7607441 417.573722,26.7538738 L417.575685,26.7342446 L417.577648,26.7146154 L417.579611,26.6763384 C417.579611,26.6635794 417.579611,26.6498389 417.577648,26.6380614 C417.577648,26.6331541 417.577648,26.6272653 417.575685,26.6184322 C417.575685,26.6135249 417.575685,26.6056732 417.573722,26.5997844 L417.57176,26.5772108 L417.570778,26.5615074 L417.566852,26.5369709 L417.564889,26.5232304 L417.559001,26.4986939 C417.557038,26.494768 417.557038,26.4908422 417.557038,26.4869164 L417.551149,26.4643427 L417.547223,26.4506023 L417.547223,26.4506023 C417.545733,26.443354 417.543081,26.4363941 417.539371,26.4299916 L417.533483,26.4142882 L417.526612,26.394659 L417.520724,26.3779742 L417.512872,26.3603078 L417.50502,26.3406786 C417.503057,26.3377342 417.501094,26.330864 417.497168,26.3279196 C417.493243,26.3200679 417.489317,26.3141792 417.487354,26.3073089 L417.487354,26.3073089 C417.485768,26.3030124 417.483443,26.2990265 417.480484,26.2955314 L417.468706,26.2739393 L417.460854,26.2631432 C417.456929,26.2552915 417.45104,26.2494027 417.448095,26.241551 L417.440244,26.2297735 C417.436318,26.2229033 417.430429,26.2170145 417.42454,26.2091628 L417.414726,26.1973853 L417.401967,26.1807004 L417.388226,26.1649971 L417.376449,26.1512566 C417.366634,26.141442 417.359764,26.1316274 417.349949,26.1227942 L417.320505,26.0962948 L417.307746,26.0845172 L417.292043,26.0707768 L417.292043,26.0707768 C417.286922,26.0659769 417.281332,26.0617025 417.275358,26.0580178 L417.263581,26.0482032 L417.24297,26.0324998 L417.231192,26.0246481 C417.223341,26.0217037 417.217452,26.0148335 417.2096,26.0118891 L417.2096,26.0118891 C417.20558,26.0099074 417.201928,26.0072518 417.198804,26.0040374 L417.177212,25.9922599 C417.173286,25.990297 417.16936,25.988334 417.165435,25.9844082 L417.144824,25.9745936 C417.140898,25.9736121 417.135009,25.9716492 417.131083,25.9677234 C417.125195,25.9637975 417.118324,25.9618346 417.111454,25.9598717 L417.094769,25.95202 L417.078085,25.9461312 C417.072196,25.9441683 417.064344,25.9402424 417.058455,25.939261 L417.042752,25.9333722 L417.022141,25.9255205 L417.008401,25.9215947 L416.985827,25.9157059 L416.972087,25.9117801 L416.94755,25.9058913 L416.93381,25.9039284 L416.93381,25.9039284 C416.925802,25.9017128 416.917572,25.9003961 416.909273,25.9000025 L416.89357,25.8990211 C416.885718,25.8970581 416.877866,25.8970581 416.870996,25.8970581 L416.851367,25.8950952 L416.834682,25.8931323 L416.795424,25.8911694 L407.245805,25.8911694 L407.245805,25.8911694 C406.811898,25.8911694 406.460146,26.2429217 406.460146,26.6768291 C406.460146,27.1107366 406.811898,27.4624889 407.245805,27.4624889 L414.898251,27.4624889 L414.399669,27.9610712 L414.399669,27.9610712 C414.078323,28.2522374 414.053857,28.7487763 414.345023,29.0701225 C414.63619,29.3914686 415.132729,29.4159342 415.454075,29.124768 C415.473176,29.1074609 415.491413,29.0892236 415.50872,29.0701225 L417.347979,27.2328269 L417.374478,27.2033831 L417.386256,27.1906241 L417.401959,27.1729578 L417.401967,27.1729578 Z" id="path-1"></path>
        <filter x="-13.9%" y="-13.9%" width="127.8%" height="127.8%" filterUnits="objectBoundingBox" id="filter-2">
            <feGaussianBlur stdDeviation="2.5" in="SourceAlpha" result="shadowBlurInner1"></feGaussianBlur>
            <feOffset dx="0" dy="0" in="shadowBlurInner1" result="shadowOffsetInner1"></feOffset>
            <feComposite in="shadowOffsetInner1" in2="SourceAlpha" operator="arithmetic" k2="-1" k3="1" result="shadowInnerInner1"></feComposite>
            <feColorMatrix values="0 0 0 0 0   0 0 0 0 0   0 0 0 0 0  0 0 0 0.1 0" type="matrix" in="shadowInnerInner1"></feColorMatrix>
        </filter>
    </defs>
    <g id="PLO" stroke="none" stroke-width="1" fill="none" fill-rule="evenodd">
        <g id="形状" transform="translate(-403.000000, -16.000000)">
            <use fill="#FFFFFF" fill-rule="evenodd" xlink:href="#path-1"></use>
            <use fill="black" fill-opacity="1" filter="url(#filter-2)" xlink:href="#path-1"></use>
        </g>
    </g>
</svg>